<mxfile host="www.draw.io" modified="2020-04-10T05:31:33.997Z" agent="5.0 (Macintosh; Intel Mac OS X 10_15_4) AppleWebKit/537.36 (KHTML, like Gecko) Chrome/80.0.3987.163 Safari/537.36" etag="hEaf1QsFqMFgIdoJYI9y" version="12.9.8" type="github">
  <diagram id="oIKd4NjptC8b40GT2Kuk" name="Page-1">
    <mxGraphModel dx="1666" dy="891" grid="1" gridSize="10" guides="1" tooltips="1" connect="1" arrows="1" fold="1" page="1" pageScale="1" pageWidth="827" pageHeight="1169" math="0" shadow="0">
      <root>
        <mxCell id="0" />
        <mxCell id="1" parent="0" />
        <mxCell id="mkdxV7GArwCcjvb2gv52-31" style="edgeStyle=orthogonalEdgeStyle;rounded=0;orthogonalLoop=1;jettySize=auto;html=1;exitX=0;exitY=0.3333333333333333;exitDx=0;exitDy=0;exitPerimeter=0;entryX=0.492;entryY=0.1;entryDx=0;entryDy=0;entryPerimeter=0;" edge="1" parent="1" source="mkdxV7GArwCcjvb2gv52-2" target="mkdxV7GArwCcjvb2gv52-5">
          <mxGeometry relative="1" as="geometry" />
        </mxCell>
        <mxCell id="mkdxV7GArwCcjvb2gv52-32" style="edgeStyle=orthogonalEdgeStyle;rounded=0;orthogonalLoop=1;jettySize=auto;html=1;exitX=1;exitY=0.3333333333333333;exitDx=0;exitDy=0;exitPerimeter=0;entryX=0.625;entryY=0.2;entryDx=0;entryDy=0;entryPerimeter=0;" edge="1" parent="1" source="mkdxV7GArwCcjvb2gv52-2" target="mkdxV7GArwCcjvb2gv52-10">
          <mxGeometry relative="1" as="geometry" />
        </mxCell>
        <mxCell id="mkdxV7GArwCcjvb2gv52-2" value="Voice Command Input" style="shape=umlActor;verticalLabelPosition=bottom;labelBackgroundColor=#ffffff;verticalAlign=top;html=1;outlineConnect=0;" vertex="1" parent="1">
          <mxGeometry x="394" y="30" width="39" height="70" as="geometry" />
        </mxCell>
        <mxCell id="mkdxV7GArwCcjvb2gv52-13" style="edgeStyle=orthogonalEdgeStyle;rounded=0;orthogonalLoop=1;jettySize=auto;html=1;exitX=0.55;exitY=0.95;exitDx=0;exitDy=0;exitPerimeter=0;entryX=0.5;entryY=0;entryDx=0;entryDy=0;" edge="1" parent="1" source="mkdxV7GArwCcjvb2gv52-5" target="mkdxV7GArwCcjvb2gv52-11">
          <mxGeometry relative="1" as="geometry" />
        </mxCell>
        <mxCell id="mkdxV7GArwCcjvb2gv52-5" value="Amazon Alexa voice service" style="ellipse;shape=cloud;whiteSpace=wrap;html=1;" vertex="1" parent="1">
          <mxGeometry x="200" y="230" width="120" height="80" as="geometry" />
        </mxCell>
        <mxCell id="mkdxV7GArwCcjvb2gv52-7" value="Kapture Cloud" style="ellipse;whiteSpace=wrap;html=1;" vertex="1" parent="1">
          <mxGeometry x="381" y="620" width="120" height="80" as="geometry" />
        </mxCell>
        <mxCell id="mkdxV7GArwCcjvb2gv52-19" style="edgeStyle=orthogonalEdgeStyle;rounded=0;orthogonalLoop=1;jettySize=auto;html=1;exitX=0.55;exitY=0.95;exitDx=0;exitDy=0;exitPerimeter=0;entryX=0.5;entryY=0;entryDx=0;entryDy=0;" edge="1" parent="1" source="mkdxV7GArwCcjvb2gv52-10" target="mkdxV7GArwCcjvb2gv52-15">
          <mxGeometry relative="1" as="geometry" />
        </mxCell>
        <mxCell id="mkdxV7GArwCcjvb2gv52-10" value="GA voice &lt;br&gt;service" style="ellipse;shape=cloud;whiteSpace=wrap;html=1;" vertex="1" parent="1">
          <mxGeometry x="520" y="230" width="120" height="80" as="geometry" />
        </mxCell>
        <mxCell id="mkdxV7GArwCcjvb2gv52-14" style="edgeStyle=orthogonalEdgeStyle;rounded=0;orthogonalLoop=1;jettySize=auto;html=1;exitX=0.5;exitY=1;exitDx=0;exitDy=0;entryX=0;entryY=0.5;entryDx=0;entryDy=0;" edge="1" parent="1" source="mkdxV7GArwCcjvb2gv52-11" target="mkdxV7GArwCcjvb2gv52-7">
          <mxGeometry relative="1" as="geometry" />
        </mxCell>
        <mxCell id="mkdxV7GArwCcjvb2gv52-11" value="Alexa AWS Lambda" style="ellipse;whiteSpace=wrap;html=1;" vertex="1" parent="1">
          <mxGeometry x="200" y="340" width="120" height="80" as="geometry" />
        </mxCell>
        <mxCell id="mkdxV7GArwCcjvb2gv52-18" style="edgeStyle=orthogonalEdgeStyle;rounded=0;orthogonalLoop=1;jettySize=auto;html=1;exitX=0.5;exitY=1;exitDx=0;exitDy=0;entryX=0.5;entryY=0;entryDx=0;entryDy=0;" edge="1" parent="1" source="mkdxV7GArwCcjvb2gv52-15" target="mkdxV7GArwCcjvb2gv52-16">
          <mxGeometry relative="1" as="geometry" />
        </mxCell>
        <mxCell id="mkdxV7GArwCcjvb2gv52-15" value="AWS API Gateway" style="ellipse;whiteSpace=wrap;html=1;" vertex="1" parent="1">
          <mxGeometry x="530" y="340" width="120" height="80" as="geometry" />
        </mxCell>
        <mxCell id="mkdxV7GArwCcjvb2gv52-20" style="edgeStyle=orthogonalEdgeStyle;rounded=0;orthogonalLoop=1;jettySize=auto;html=1;exitX=0.5;exitY=1;exitDx=0;exitDy=0;entryX=1;entryY=0.5;entryDx=0;entryDy=0;" edge="1" parent="1" source="mkdxV7GArwCcjvb2gv52-16" target="mkdxV7GArwCcjvb2gv52-7">
          <mxGeometry relative="1" as="geometry" />
        </mxCell>
        <mxCell id="mkdxV7GArwCcjvb2gv52-16" value="GA AWS Lambda" style="ellipse;whiteSpace=wrap;html=1;" vertex="1" parent="1">
          <mxGeometry x="530" y="480" width="120" height="80" as="geometry" />
        </mxCell>
      </root>
    </mxGraphModel>
  </diagram>
</mxfile>
